<?xml version="1.0" standalone="no"?><!DOCTYPE svg PUBLIC "-//W3C//DTD SVG 1.1//EN" "http://www.w3.org/Graphics/SVG/1.1/DTD/svg11.dtd"><svg t="1651558268537" class="icon" viewBox="0 0 1024 1024" version="1.1" xmlns="http://www.w3.org/2000/svg" p-id="3444" width="64" height="64" xmlns:xlink="http://www.w3.org/1999/xlink"><defs><style type="text/css">@font-face { font-family: feedback-iconfont; src: url("//at.alicdn.com/t/font_1031158_u69w8yhxdu.woff2?t=1630033759944") format("woff2"), url("//at.alicdn.com/t/font_1031158_u69w8yhxdu.woff?t=1630033759944") format("woff"), url("//at.alicdn.com/t/font_1031158_u69w8yhxdu.ttf?t=1630033759944") format("truetype"); }
</style></defs><path d="M213.333333 554.666667h506.026667l-154.88 186.026666a42.666667 42.666667 0 0 0 65.706667 54.613334l213.333333-256a50.773333 50.773333 0 0 0 3.84-6.4c0-2.133333 2.133333-3.413333 2.986667-5.546667A42.666667 42.666667 0 0 0 853.333333 512a42.666667 42.666667 0 0 0-2.986666-15.36c0-2.133333-2.133333-3.413333-2.986667-5.546667a50.773333 50.773333 0 0 0-3.84-6.4l-213.333333-256A42.666667 42.666667 0 0 0 597.333333 213.333333a42.666667 42.666667 0 0 0-27.306666 9.813334 42.666667 42.666667 0 0 0-5.546667 60.16L719.36 469.333333H213.333333a42.666667 42.666667 0 0 0 0 85.333334z" p-id="3445" fill="#2c2c2c"></path></svg>