<?xml version="1.0" standalone="no"?><!DOCTYPE svg PUBLIC "-//W3C//DTD SVG 1.1//EN" "http://www.w3.org/Graphics/SVG/1.1/DTD/svg11.dtd"><svg t="1652282547931" class="icon" viewBox="0 0 1024 1024" version="1.1" xmlns="http://www.w3.org/2000/svg" p-id="2227" xmlns:xlink="http://www.w3.org/1999/xlink" width="64" height="64"><defs><style type="text/css"></style></defs><path d="M512 138.666667c93.952 0 169.514667 79.36 174.037333 177.877333l0.213334 9.258667-0.042667 80.469333H768a32 32 0 0 1 31.701333 27.690667l0.298667 4.352V810.666667a32 32 0 0 1-32 32H256a32 32 0 0 1-32-32v-372.352a32 32 0 0 1 32-32l81.749333-0.042667V325.802667C337.792 223.061333 415.146667 138.666667 512 138.666667z m224 331.605333H288v308.352h448v-308.352zM512 202.666667c-57.984 0-106.496 50.56-109.994667 115.626666l-0.213333 7.509334-0.042667 80.469333h220.458667V325.802667c0-68.565333-50.005333-123.136-110.208-123.136z" p-id="2228"></path></svg>